<mxfile host="app.diagrams.net" modified="2023-10-10T12:50:52.164Z" agent="Mozilla/5.0 (X11; Linux x86_64) AppleWebKit/537.36 (KHTML, like Gecko) Chrome/117.0.0.0 Safari/537.36" etag="9lWtQd2pXplYIAaCDvec" version="22.0.4" type="device">
  <diagram name="Page-1" id="MRzsRnbwaMJQk0XSHjTc">
    <mxGraphModel dx="797" dy="419" grid="1" gridSize="10" guides="1" tooltips="1" connect="1" arrows="1" fold="1" page="1" pageScale="1" pageWidth="850" pageHeight="1100" math="0" shadow="0">
      <root>
        <mxCell id="0" />
        <mxCell id="1" parent="0" />
        <mxCell id="oE--b2Kh5pRUx79Y7mFf-1" value="UI" style="rounded=1;whiteSpace=wrap;html=1;" vertex="1" parent="1">
          <mxGeometry x="40" y="40" width="120" height="60" as="geometry" />
        </mxCell>
        <mxCell id="oE--b2Kh5pRUx79Y7mFf-13" style="edgeStyle=orthogonalEdgeStyle;rounded=0;orthogonalLoop=1;jettySize=auto;html=1;entryX=0.5;entryY=0;entryDx=0;entryDy=0;" edge="1" parent="1" source="oE--b2Kh5pRUx79Y7mFf-2" target="oE--b2Kh5pRUx79Y7mFf-12">
          <mxGeometry relative="1" as="geometry" />
        </mxCell>
        <mxCell id="oE--b2Kh5pRUx79Y7mFf-2" value="Auth Service" style="rounded=1;whiteSpace=wrap;html=1;" vertex="1" parent="1">
          <mxGeometry x="40" y="170" width="120" height="60" as="geometry" />
        </mxCell>
        <mxCell id="oE--b2Kh5pRUx79Y7mFf-9" value="" style="edgeStyle=orthogonalEdgeStyle;rounded=0;orthogonalLoop=1;jettySize=auto;html=1;" edge="1" parent="1" source="oE--b2Kh5pRUx79Y7mFf-3" target="oE--b2Kh5pRUx79Y7mFf-1">
          <mxGeometry relative="1" as="geometry" />
        </mxCell>
        <mxCell id="oE--b2Kh5pRUx79Y7mFf-3" value="Api Service" style="rounded=1;whiteSpace=wrap;html=1;" vertex="1" parent="1">
          <mxGeometry x="290" y="40" width="120" height="60" as="geometry" />
        </mxCell>
        <mxCell id="oE--b2Kh5pRUx79Y7mFf-4" value="kafka" style="shape=datastore;whiteSpace=wrap;html=1;" vertex="1" parent="1">
          <mxGeometry x="460" y="100" width="60" height="60" as="geometry" />
        </mxCell>
        <mxCell id="oE--b2Kh5pRUx79Y7mFf-6" value="" style="endArrow=classic;startArrow=classic;html=1;rounded=0;exitX=0.5;exitY=0;exitDx=0;exitDy=0;entryX=0.5;entryY=1;entryDx=0;entryDy=0;" edge="1" parent="1" source="oE--b2Kh5pRUx79Y7mFf-2" target="oE--b2Kh5pRUx79Y7mFf-1">
          <mxGeometry width="50" height="50" relative="1" as="geometry">
            <mxPoint x="100" y="170" as="sourcePoint" />
            <mxPoint x="150" y="120" as="targetPoint" />
          </mxGeometry>
        </mxCell>
        <mxCell id="oE--b2Kh5pRUx79Y7mFf-8" value="" style="endArrow=classic;startArrow=classic;html=1;rounded=0;exitX=0;exitY=0.5;exitDx=0;exitDy=0;entryX=1;entryY=0.5;entryDx=0;entryDy=0;" edge="1" parent="1" source="oE--b2Kh5pRUx79Y7mFf-3" target="oE--b2Kh5pRUx79Y7mFf-1">
          <mxGeometry width="50" height="50" relative="1" as="geometry">
            <mxPoint x="110" y="180" as="sourcePoint" />
            <mxPoint x="110" y="110" as="targetPoint" />
          </mxGeometry>
        </mxCell>
        <mxCell id="oE--b2Kh5pRUx79Y7mFf-17" style="edgeStyle=orthogonalEdgeStyle;rounded=0;orthogonalLoop=1;jettySize=auto;html=1;entryX=1;entryY=0.5;entryDx=0;entryDy=0;" edge="1" parent="1" source="oE--b2Kh5pRUx79Y7mFf-11" target="oE--b2Kh5pRUx79Y7mFf-12">
          <mxGeometry relative="1" as="geometry">
            <Array as="points">
              <mxPoint x="240" y="200" />
              <mxPoint x="240" y="310" />
            </Array>
          </mxGeometry>
        </mxCell>
        <mxCell id="oE--b2Kh5pRUx79Y7mFf-11" value="Judge Service" style="rounded=1;whiteSpace=wrap;html=1;" vertex="1" parent="1">
          <mxGeometry x="290" y="170" width="120" height="60" as="geometry" />
        </mxCell>
        <mxCell id="oE--b2Kh5pRUx79Y7mFf-12" value="postgres" style="shape=datastore;whiteSpace=wrap;html=1;" vertex="1" parent="1">
          <mxGeometry x="70" y="280" width="60" height="60" as="geometry" />
        </mxCell>
        <mxCell id="oE--b2Kh5pRUx79Y7mFf-15" value="" style="endArrow=classic;startArrow=classic;html=1;rounded=0;entryX=1;entryY=0.5;entryDx=0;entryDy=0;" edge="1" parent="1" source="oE--b2Kh5pRUx79Y7mFf-4" target="oE--b2Kh5pRUx79Y7mFf-3">
          <mxGeometry width="50" height="50" relative="1" as="geometry">
            <mxPoint x="340" y="130" as="sourcePoint" />
            <mxPoint x="250" y="130" as="targetPoint" />
          </mxGeometry>
        </mxCell>
        <mxCell id="oE--b2Kh5pRUx79Y7mFf-16" value="" style="endArrow=classic;startArrow=classic;html=1;rounded=0;exitX=-0.033;exitY=0.869;exitDx=0;exitDy=0;entryX=1;entryY=0.5;entryDx=0;entryDy=0;exitPerimeter=0;" edge="1" parent="1" source="oE--b2Kh5pRUx79Y7mFf-4" target="oE--b2Kh5pRUx79Y7mFf-11">
          <mxGeometry width="50" height="50" relative="1" as="geometry">
            <mxPoint x="270" y="90" as="sourcePoint" />
            <mxPoint x="180" y="90" as="targetPoint" />
          </mxGeometry>
        </mxCell>
        <mxCell id="oE--b2Kh5pRUx79Y7mFf-18" value="Get task&lt;br&gt;Submit solution" style="text;html=1;strokeColor=none;fillColor=none;align=center;verticalAlign=middle;whiteSpace=wrap;rounded=0;" vertex="1" parent="1">
          <mxGeometry x="170" y="40" width="110" height="30" as="geometry" />
        </mxCell>
        <mxCell id="oE--b2Kh5pRUx79Y7mFf-19" value="Publish solutions" style="text;html=1;strokeColor=none;fillColor=none;align=center;verticalAlign=middle;whiteSpace=wrap;rounded=0;" vertex="1" parent="1">
          <mxGeometry x="425" y="70" width="110" height="30" as="geometry" />
        </mxCell>
        <mxCell id="oE--b2Kh5pRUx79Y7mFf-20" value="Get solutions" style="text;html=1;strokeColor=none;fillColor=none;align=center;verticalAlign=middle;whiteSpace=wrap;rounded=0;" vertex="1" parent="1">
          <mxGeometry x="410" y="170" width="110" height="30" as="geometry" />
        </mxCell>
        <mxCell id="oE--b2Kh5pRUx79Y7mFf-21" value="Save solution&lt;br&gt;Compile solution&lt;br&gt;Test solution&lt;br&gt;Save result" style="text;html=1;strokeColor=none;fillColor=none;align=center;verticalAlign=middle;whiteSpace=wrap;rounded=0;" vertex="1" parent="1">
          <mxGeometry x="295" y="250" width="110" height="30" as="geometry" />
        </mxCell>
        <mxCell id="oE--b2Kh5pRUx79Y7mFf-22" value="sign-up/sign-in" style="text;html=1;strokeColor=none;fillColor=none;align=center;verticalAlign=middle;whiteSpace=wrap;rounded=0;" vertex="1" parent="1">
          <mxGeometry x="90" y="120" width="110" height="30" as="geometry" />
        </mxCell>
        <mxCell id="oE--b2Kh5pRUx79Y7mFf-24" value="users&lt;br&gt;tasks and tests&lt;br&gt;solutions" style="text;html=1;strokeColor=none;fillColor=none;align=center;verticalAlign=middle;whiteSpace=wrap;rounded=0;" vertex="1" parent="1">
          <mxGeometry x="45" y="350" width="110" height="30" as="geometry" />
        </mxCell>
      </root>
    </mxGraphModel>
  </diagram>
</mxfile>
